HIERARCHY
ROOT Hips
{
    OFFSET 0.000000 0.000000 0.000000
    CHANNELS 6 Xposition Yposition Zposition Zrotation Xrotation Yrotation
    JOINT Spine
    {
        OFFSET -0.000000 7.236184 0.000000
        CHANNELS 3 Zrotation Xrotation Yrotation
        JOINT Spine1
        {
            OFFSET -0.000000 20.420147 0.000000
            CHANNELS 3 Zrotation Xrotation Yrotation
            JOINT Neck
            {
                OFFSET -0.000000 20.336288 1.848754
                CHANNELS 3 Zrotation Xrotation Yrotation
                JOINT Head
                {
                    OFFSET -0.000000 12.354461 -1.764923
                    CHANNELS 3 Zrotation Xrotation Yrotation
                    End Site
                    {
                        OFFSET -0.000000 22.061537 0.000000
                    }
                }
            }
            JOINT LeftShoulder
            {
                OFFSET 3.573296 18.396038 -0.314103
                CHANNELS 3 Zrotation Xrotation Yrotation
                JOINT LeftArm
                {
                    OFFSET 10.880760 0.000000 0.000000
                    CHANNELS 3 Zrotation Xrotation Yrotation
                    JOINT LeftForeArm
                    {
                        OFFSET 27.185530 0.000000 0.000000
                        CHANNELS 3 Zrotation Xrotation Yrotation
                        JOINT LeftHand
                        {
                            OFFSET 27.825975 0.000000 0.000000
                            CHANNELS 3 Zrotation Xrotation Yrotation
                            End Site
                            {
                                OFFSET 13.236923 0.000000 0.000000
                            }
                        }
                    }
                }
            }
            JOINT RightShoulder
            {
                OFFSET -3.474926 18.396038 -0.314103
                CHANNELS 3 Zrotation Xrotation Yrotation
                JOINT RightArm
                {
                    OFFSET -10.880760 0.000000 0.000000
                    CHANNELS 3 Zrotation Xrotation Yrotation
                    JOINT RightForeArm
                    {
                        OFFSET -27.185530 0.000000 0.000000
                        CHANNELS 3 Zrotation Xrotation Yrotation
                        JOINT RightHand
                        {
                            OFFSET -27.825975 0.000000 0.000000
                            CHANNELS 3 Zrotation Xrotation Yrotation
                            End Site
                            {
                                OFFSET -13.236923 0.000000 0.000000
                            }
                        }
                    }
                }
            }
        }
    }
    JOINT LeftUpLeg
    {
        OFFSET 8.824615 0.000000 0.000000
        CHANNELS 3 Zrotation Xrotation Yrotation
        JOINT LeftLeg
        {
            OFFSET -0.000000 -35.111282 0.000000
            CHANNELS 3 Zrotation Xrotation Yrotation
            JOINT LeftFoot
            {
                OFFSET -0.000000 -42.324711 0.000000
                CHANNELS 3 Zrotation Xrotation Yrotation
                JOINT LeftToeBase
                {
                    OFFSET -0.000000 -5.735999 13.236923
                    CHANNELS 3 Zrotation Xrotation Yrotation
                    End Site
                    {
                        OFFSET -0.000000 0.000000 3.529846
                    }
                }
            }
        }
    }
    JOINT RightUpLeg
    {
        OFFSET -8.824615 0.000000 0.000000
        CHANNELS 3 Zrotation Xrotation Yrotation
        JOINT RightLeg
        {
            OFFSET -0.000000 -35.111282 0.000000
            CHANNELS 3 Zrotation Xrotation Yrotation
            JOINT RightFoot
            {
                OFFSET -0.000000 -42.324711 0.000000
                CHANNELS 3 Zrotation Xrotation Yrotation
                JOINT RightToeBase
                {
                    OFFSET -0.000000 -5.735999 13.236923
                    CHANNELS 3 Zrotation Xrotation Yrotation
                    End Site
                    {
                        OFFSET -0.000000 0.000000 3.529846
                    }
                }
            }
        }
    }
}
MOTION
Frames:    6
Frame Time:    0.008333
19.252794    79.963326    115.094711    -7.080469    -20.443707    178.694641    -2.393962    -6.425236    2.055674    -5.191419    5.700525    2.448824    -0.683071    -0.250484    -3.188444    -12.160317    -30.085577    -8.043996    4.955954    2.582808    -11.585707    -29.740572    14.797910    -51.906303    22.439356    -4.545744    -20.503485    56.011654    -1.632711    -2.246885    -4.947311    6.122640    11.287323    19.505234    15.132151    41.193222    -25.442171    -5.753699    31.751926    -52.442402    -1.556740    6.410042    26.719662    -36.094250    6.269595    0.483539    36.576172    9.544434    -14.185892    11.404996    -20.303244    -1.688643    -6.471605    1.895057    -27.301285    -34.848888    -11.241043    3.697468    31.127029    3.407204    12.467851    -11.736244    -13.259334    -1.244109    -0.858627    1.347189    
18.745399    79.551529    115.247795    -6.775305    -20.323627    178.775192    -2.292267    -6.353949    2.067306    -5.081250    6.166722    2.468526    -0.745250    -0.746992    -3.537381    -11.972687    -29.987646    -8.308414    5.234524    1.926934    -12.509925    -28.820545    13.836749    -53.518837    22.494762    -5.347620    -20.329908    55.437252    -1.976437    -1.349304    -5.456704    5.610736    12.329103    19.025440    13.392229    42.194557    -25.401024    -5.820937    30.478476    -51.784100    -1.811193    6.224943    26.791920    -36.191887    6.060778    0.410965    35.753883    9.845917    -14.654024    11.155507    -20.228209    -1.711895    -6.418664    1.920943    -27.684536    -35.359745    -11.697019    3.680684    32.193016    3.609676    12.782204    -11.962131    -13.143399    -1.259482    -0.881045    1.363878    
18.230824    79.124924    115.396774    -6.458190    -20.205879    178.833069    -2.196919    -6.272096    2.088143    -4.931198    6.632545    2.494538    -0.806318    -1.232956    -3.865734    -11.665394    -29.980295    -8.512898    5.519455    1.328268    -13.365835    -27.988852    12.871492    -55.103542    22.539858    -6.187915    -20.155561    54.848614    -2.346880    -0.400171    -5.972569    5.157832    13.300367    18.657980    11.608643    43.122345    -25.382351    -5.875414    29.269888    -51.025608    -2.021999    6.035314    26.885490    -36.343117    5.878766    0.358017    35.219933    10.193410    -15.132895    10.837106    -20.180132    -1.737575    -6.426683    1.949789    -28.050097    -35.877758    -12.144772    3.635981    33.250374    3.829110    13.114092    -12.182256    -13.014055    -1.273633    -0.899603    1.379238    
17.702343    78.682503    115.542778    -6.128417    -20.090963    178.871933    -2.108323    -6.181898    2.118044    -4.747210    7.100778    2.526711    -0.861470    -1.707682    -4.180887    -11.240982    -30.062157    -8.666142    5.813479    0.773898    -14.165345    -27.232149    11.894648    -56.688366    22.576067    -7.069376    -19.975828    54.246925    -2.747041    0.604272    -6.493903    4.754383    14.214517    18.387794    9.776963    43.997555    -25.388428    -5.928719    28.112724    -50.159061    -2.201863    5.833860    26.998163    -36.548649    5.746765    0.329133    34.944241    10.541245    -15.636364    10.437110    -20.141251    -1.763366    -6.491421    1.978991    -28.404678    -36.400547    -12.584686    3.564905    34.296104    4.063339    13.466653    -12.394978    -12.874195    -1.286526    -0.913877    1.393228    
17.154116    78.224022    115.686287    -5.785707    -19.980408    178.894714    -2.026929    -6.086236    2.156831    -4.534256    7.572962    2.564944    -0.906757    -2.169078    -4.488324    -10.696945    -30.233667    -8.772558    6.118276    0.255006    -14.914792    -26.547274    10.901359    -58.295704    22.604824    -7.989048    -19.786150    53.635132    -3.177690    1.661197    -7.018591    4.395708    15.077632    18.206100    7.895318    44.837517    -25.422243    -5.991403    27.000137    -49.176601    -2.361387    5.614924    27.127167    -36.810883    5.686524    0.331562    34.909557    10.844254    -16.174828    9.938062    -20.094917    -1.786508    -6.608305    2.005436    -28.754078    -36.925304    -13.015174    3.469902    35.324898    4.308671    13.842598    -12.598231    -12.726714    -1.298019    -0.923891    1.405693    
16.584673    77.753357    115.826416    -5.432208    -19.877468    178.904266    -1.953658    -5.989099    2.203981    -4.298063    8.045631    2.608693    -0.937259    -2.610662    -4.790105    -10.034864    -30.494436    -8.834262    6.431458    -0.230774    -15.613956    -25.940363    9.897305    -59.931820    22.627859    -8.932521    -19.583666    53.023991    -3.633775    2.754511    -7.538733    4.081857    15.885155    18.109024    5.978150    45.651569    -25.485907    -6.072946    25.937605    -48.079273    -2.509595    5.375695    27.268774    -37.131733    5.718265    0.375038    35.104767    11.060616    -16.751574    9.323298    -20.030148    -1.803716    -6.766535    2.025407    -29.101065    -37.445080    -13.430737    3.355209    36.322231    4.557706    14.242104    -12.787476    -12.574856    -1.307034    -0.930513    1.415468    
